<svg width="64" height="64" viewBox="0 0 64 64" fill="none" xmlns="http://www.w3.org/2000/svg">
  <path d="M14 8 C12.9 8 12 8.9 12 10 L12 54 C12 55.1 12.9 56 14 56 L46 56 C47.1 56 48 55.1 48 54 L48 20 L38 10 L14 8 Z M38 10 L38 20 L48 20" 
        fill="none" stroke="#4ECDC4" stroke-width="2" stroke-linejoin="round"/>
  <path d="M20 28 L16 32 L20 36" fill="none" stroke="#4ECDC4" stroke-width="2" stroke-linecap="round"/>
  <path d="M28 36 L32 32 L28 28" fill="none" stroke="#4ECDC4" stroke-width="2" stroke-linecap="round"/>
  <line x1="24" y1="26" x2="26" y2="38" stroke="#4ECDC4" stroke-width="2" stroke-linecap="round"/>
  <line x1="18" y1="42" x2="40" y2="42" stroke="#4ECDC4" stroke-width="2" stroke-linecap="round"/>
  <line x1="18" y1="46" x2="35" y2="46" stroke="#4ECDC4" stroke-width="2" stroke-linecap="round"/>
  <line x1="18" y1="50" x2="42" y2="50" stroke="#4ECDC4" stroke-width="2" stroke-linecap="round"/>
</svg>
